<?xml version="1.0" encoding="UTF-8"?> <svg xmlns="http://www.w3.org/2000/svg" width="343" height="180" viewBox="0 0 343 180" fill="none"> <g clip-path="url(#clip0_347_16)"> <path d="M325.389 47.6096C318.189 47.6096 311.969 50.5596 306.239 59.2296L283.329 93.7596L285.459 66.9196C286.119 56.7696 279.899 47.6096 268.439 47.6096C257.959 47.6096 251.419 54.6496 250.759 63.6496L247.159 113.08C246.339 125.36 252.719 132.39 263.039 132.39C273.359 132.39 279.569 125.03 284.149 118.31L306.249 84.7596L304.289 113.07C303.469 124.53 309.529 132.38 320.819 132.38C331.299 132.38 338.169 126.16 338.829 116.83L342.589 66.9096C343.249 57.0896 338.499 47.5996 325.399 47.5996L325.389 47.6096ZM238.149 108.66C238.149 97.1996 229.469 89.9996 218.179 88.3696C228.819 86.2396 237.989 79.3696 237.989 68.0796C237.989 55.4796 228.329 48.2696 210.329 48.2696H174.159C157.469 48.2696 151.249 54.9796 149.929 73.4796L147.799 104.41C146.329 125.03 152.219 131.58 172.679 131.58H207.379C227.349 131.58 238.149 123.4 238.149 108.67V108.66ZM203.939 106.2C203.939 113.57 198.379 116.84 189.049 116.84H179.389C179.389 116.84 181.029 106.69 182.009 96.7096H190.849C198.539 96.7096 203.939 99.8196 203.939 106.2ZM204.269 72.4796C204.269 78.6996 199.359 82.2996 190.519 82.2996H183.159C183.159 82.2996 183.819 71.1696 183.489 63.1496H191.509C199.529 63.1496 204.279 66.5896 204.279 72.4796H204.269Z" fill="black"></path> <path d="M122.59 47.6104C115.23 47.6104 109.33 50.5604 103.44 59.2304L80.5298 93.7604L82.6598 66.9203C83.3198 56.7703 76.9297 47.6104 65.6397 47.6104C55.1597 47.6104 48.6197 54.6504 47.9597 63.6504L44.3598 113.08C43.5398 125.36 49.9198 132.39 60.0697 132.39C70.2197 132.39 76.5998 125.03 81.3498 118.31L103.44 84.7604L101.48 113.08C100.5 124.54 106.72 132.39 118.01 132.39C128.49 132.39 135.36 126.17 136.01 116.84L139.61 66.9203C140.43 57.1003 135.68 47.6104 122.59 47.6104V47.6104Z" fill="url(#paint0_linear_347_16)"></path> <path d="M82.6402 66.9203L80.5102 93.7604L81.3302 118.31C76.5802 125.02 70.2002 132.39 60.0502 132.39C49.9002 132.39 43.5202 125.35 44.3402 113.08L47.9402 63.6504C48.6002 54.6504 55.1402 47.6104 65.6202 47.6104C76.9202 47.6104 83.3002 56.7803 82.6402 66.9203V66.9203Z" fill="url(#paint1_linear_347_16)"></path> <path d="M82.6902 65.5196C82.6902 56.1596 76.6402 47.5996 65.5002 47.5996C54.3602 47.5996 47.9102 55.9496 47.9102 64.9496C47.9102 74.6096 55.1602 82.1396 65.3002 82.1396C75.4402 82.1396 82.6802 75.1796 82.6802 65.5196H82.6902Z" fill="black"></path> <path d="M173.14 140.67H164.94L162.64 146.41C155.75 163.63 141.98 171.99 117.39 171.99C107.88 171.99 95.75 172.15 81.98 170.84C43.94 167.23 26.89 161.82 17.38 150.02C7.71 137.72 5.74 117.39 10 81.6502C12.13 63.1202 15.74 29.6802 30.99 17.7102C39.35 11.1502 50.67 7.71023 69.03 7.71023C77.88 7.71023 90.02 8.37023 101.49 9.51023C125.92 11.9702 157.4 15.5802 169.04 34.9202C170.35 37.2202 171.01 39.1802 171.01 39.1802H179.37C178.71 37.5402 178.22 35.9002 177.24 34.1002C171.01 21.8002 160.52 14.7502 146.09 9.83023C135.76 6.22023 122.97 3.76023 104.44 1.96023C94.11 0.970234 80.01 -0.00976562 69.19 -0.00976562C51.97 0.000234375 36.4 2.79023 25.74 11.9702C11.64 24.4302 6.23 46.2302 2.13 80.5002C0.66 92.4702 0.16 103.29 0 112.47C0 130.01 2.79 143.78 10.99 154.11C17.88 162.8 27.71 167.88 39.52 171.65C61 178.21 92.31 179.85 114.28 179.85C130.84 179.85 143.3 177.39 151.82 171.98C159.53 167.06 165.43 160.18 169.69 150.67C171.66 146.57 172.64 141.98 173.14 140.67Z" fill="black"></path> </g> <defs> <linearGradient id="paint0_linear_347_16" x1="88.2297" y1="89.5904" x2="52.8198" y2="85.0904" gradientUnits="userSpaceOnUse"> <stop offset="0.14"></stop> <stop offset="0.62" stop-opacity="0.6"></stop> <stop offset="0.99" stop-opacity="0"></stop> </linearGradient> <linearGradient id="paint1_linear_347_16" x1="57.0502" y1="132.02" x2="66.6602" y2="79.6303" gradientUnits="userSpaceOnUse"> <stop offset="0.15"></stop> <stop offset="0.62" stop-opacity="0.6"></stop> <stop offset="1" stop-opacity="0"></stop> </linearGradient> <clipPath id="clip0_347_16"> <rect width="342.63" height="179.86" fill="white"></rect> </clipPath> </defs> </svg> 