<?xml version="1.0" encoding="UTF-8"?> <svg xmlns="http://www.w3.org/2000/svg" width="105" height="36" viewBox="0 0 105 36" fill="none"> <path d="M34.3693 11.9098V35.042C34.3693 35.5569 33.9535 35.9759 33.4424 35.9759H27.4569C26.9459 35.9759 26.53 35.5569 26.53 35.042V11.9098C26.53 11.3948 26.9459 10.9758 27.4569 10.9758H33.4424C33.9535 10.9758 34.3693 11.3927 34.3693 11.9098ZM25.0098 34.9263L18.0368 22.9053L24.6461 12.0669C24.9622 11.6043 24.6352 10.9737 24.0786 10.9737L16.8133 10.9867C16.5837 10.9867 16.3671 11.1024 16.2394 11.2945L11.1049 20.0861H8.10771V11.9098C8.10771 11.3948 7.69201 10.9758 7.18096 10.9758H1.1975C0.686432 10.9758 0.270647 11.3948 0.270647 11.9098V35.042C0.270647 35.5569 0.686432 35.9759 1.1975 35.9759H7.18308C7.69413 35.9759 8.10993 35.5569 8.10993 35.042V26.8984H11.7567L16.8609 35.6464C16.9865 35.8558 17.2117 35.9868 17.4542 35.9868H24.4209C24.9622 35.9868 25.2936 35.3911 25.0098 34.9263ZM103.469 35.9759C103.981 35.9759 104.396 35.5569 104.396 35.042V11.9098C104.396 11.3948 103.981 10.9758 103.469 10.9758H97.7007C97.1896 10.9758 96.7738 11.3948 96.7738 11.9098L96.8107 23.7431L86.3381 10.9867H79.6855C79.1745 10.9867 78.7587 11.4057 78.7587 11.9207V35.055C78.7587 35.57 79.1723 35.9868 79.6833 35.9868H85.4394C85.9505 35.9868 86.364 35.57 86.364 35.055V23.2064L96.7305 35.9759H103.469ZM76.3592 12.0058V34.9437C76.3592 35.5133 75.9002 35.9759 75.335 35.9759H37.7909C37.2257 35.9759 36.7666 35.5133 36.7666 34.9437V12.0058C36.7666 11.4363 37.2257 10.9737 37.7909 10.9737H75.3371C75.9002 10.9758 76.3592 11.4363 76.3592 12.0058ZM68.5676 17.6225C68.5676 17.4151 68.3793 17.2602 68.1756 17.3017C64.1196 18.1178 49.7577 18.2422 44.9416 17.2952C44.7423 17.2559 44.5582 17.4108 44.5582 17.6181V28.967C44.5582 29.1678 44.7337 29.3205 44.9328 29.2921C48.9261 28.6965 64.1066 28.7946 68.2038 29.3053C68.3987 29.3293 68.5676 29.1765 68.5676 28.9801V17.6225Z" fill="#050505"></path> <path d="M34.3693 11.9098V35.042C34.3693 35.5569 33.9535 35.9759 33.4424 35.9759H27.4569C26.9459 35.9759 26.53 35.5569 26.53 35.042V11.9098C26.53 11.3948 26.9459 10.9758 27.4569 10.9758H33.4424C33.9535 10.9758 34.3693 11.3927 34.3693 11.9098ZM25.0098 34.9263L18.0368 22.9053L24.6461 12.0669C24.9622 11.6043 24.6352 10.9737 24.0786 10.9737L16.8133 10.9867C16.5837 10.9867 16.3671 11.1024 16.2394 11.2945L11.1049 20.0861H8.10771V11.9098C8.10771 11.3948 7.69201 10.9758 7.18096 10.9758H1.1975C0.686432 10.9758 0.270647 11.3948 0.270647 11.9098V35.042C0.270647 35.5569 0.686432 35.9759 1.1975 35.9759H7.18308C7.69413 35.9759 8.10993 35.5569 8.10993 35.042V26.8984H11.7567L16.8609 35.6464C16.9865 35.8558 17.2117 35.9868 17.4542 35.9868H24.4209C24.9622 35.9868 25.2936 35.3911 25.0098 34.9263ZM103.469 35.9759C103.981 35.9759 104.396 35.5569 104.396 35.042V11.9098C104.396 11.3948 103.981 10.9758 103.469 10.9758H97.7007C97.1896 10.9758 96.7738 11.3948 96.7738 11.9098L96.8107 23.7431L86.3381 10.9867H79.6855C79.1745 10.9867 78.7587 11.4057 78.7587 11.9207V35.055C78.7587 35.57 79.1723 35.9868 79.6833 35.9868H85.4394C85.9505 35.9868 86.364 35.57 86.364 35.055V23.2064L96.7305 35.9759H103.469ZM76.3592 12.0058V34.9437C76.3592 35.5133 75.9002 35.9759 75.335 35.9759H37.7909C37.2257 35.9759 36.7666 35.5133 36.7666 34.9437V12.0058C36.7666 11.4363 37.2257 10.9737 37.7909 10.9737H75.3371C75.9002 10.9758 76.3592 11.4363 76.3592 12.0058ZM68.5676 17.6225C68.5676 17.4151 68.3793 17.2602 68.1756 17.3017C64.1196 18.1178 49.7577 18.2422 44.9416 17.2952C44.7423 17.2559 44.5582 17.4108 44.5582 17.6181V28.967C44.5582 29.1678 44.7337 29.3205 44.9328 29.2921C48.9261 28.6965 64.1066 28.7946 68.2038 29.3053C68.3987 29.3293 68.5676 29.1765 68.5676 28.9801V17.6225Z" fill="#050505"></path> <path d="M0 4.61511C0 2.93278 1.23219 1.713 2.84336 1.713C4.46102 1.713 5.68675 2.93278 5.68675 4.61511C5.68675 6.29755 4.46102 7.51725 2.84336 7.51725C1.23219 7.51511 0 6.30408 0 4.61511ZM4.46752 4.61511C4.46752 3.47611 3.6771 2.83021 2.84336 2.83021C2.00096 2.83021 1.21921 3.47829 1.21921 4.61511C1.21921 5.76078 2.00963 6.40882 2.84336 6.40882C3.6771 6.40882 4.46752 5.752 4.46752 4.61511Z" fill="#050505"></path> <path d="M11.1794 5.16501H8.92731V7.38851H7.72321V1.83949H8.92731V4.06302H11.1794V1.83949H12.3748V7.38851H11.1794V5.16501Z" fill="#050505"></path> <path d="M14.8521 6.36939C15.5083 6.36939 15.7746 5.95266 15.7746 4.9555V1.83727H19.5557V7.38624H18.3516V2.94576H16.9484V4.9402C16.9484 6.70331 16.3421 7.4255 14.8521 7.4255V6.36939Z" fill="#050505"></path> <path d="M25.9349 7.38851L25.4477 6.03346H23.3883L22.9162 7.38851H21.6602L23.7196 1.83949H25.1077L27.1974 7.38851H25.9349ZM23.7196 5.03844H25.1077L24.4148 3.10509L23.7196 5.03844Z" fill="#050505"></path> <path d="M29.2885 1.83948H30.4341V5.56645H30.4406L32.9743 1.83948H34.1328V7.38851H32.9895V3.61569H32.983L30.4428 7.38851H29.2907V1.83948H29.2885ZM31.7464 1.33979C30.9712 1.33979 30.328 0.944831 30.328 0H31.1704C31.1704 0.453869 31.348 0.698269 31.7464 0.698269C32.1449 0.698269 32.3224 0.451686 32.3224 0H33.1649C33.1713 0.947014 32.5303 1.33979 31.7464 1.33979Z" fill="#050505"></path> <path d="M40.2587 5.16501H38.0064V7.38851H36.8025V1.83949H38.0064V4.06302H40.2587V1.83949H41.454V7.38851H40.2587V5.16501Z" fill="#050505"></path> <path d="M43.9759 4.56274H46.1241V5.47698H43.9759V4.56274Z" fill="#050505"></path> <path d="M51.9115 7.38851L49.8369 4.74817V7.38851H48.6328V1.83949H49.8369V4.44271L51.8963 1.83949H53.3061L51.1059 4.57795L53.3494 7.39065H51.9115V7.38851Z" fill="#050505"></path> <path d="M55.399 1.83949H56.5446V5.56644H56.5511L59.0848 1.83949H60.2433V7.38851H59.0998V3.61569H59.0934L56.5532 7.38851H55.4011V1.83949H55.399Z" fill="#050505"></path> <path d="M66.3719 5.16501H64.1198V7.38851H62.9157V1.83949H64.1198V4.06302H66.3719V1.83949H67.5673V7.38851H66.3719V5.16501Z" fill="#050505"></path> <path d="M69.6177 4.61511C69.6177 2.93278 70.8499 1.713 72.4611 1.713C74.0787 1.713 75.3044 2.93278 75.3044 4.61511C75.3044 6.29755 74.0787 7.51725 72.4611 7.51725C70.8499 7.51511 69.6177 6.30408 69.6177 4.61511ZM74.0852 4.61511C74.0852 3.47611 73.2948 2.83021 72.4611 2.83021C71.6186 2.83021 70.8369 3.47829 70.8369 4.61511C70.8369 5.76078 71.6273 6.40882 72.4611 6.40882C73.2948 6.40658 74.0852 5.752 74.0852 4.61511Z" fill="#050505"></path> <path d="M78.3085 2.94798H76.6908V1.83949H81.113V2.94798H79.5039V7.38851H78.3085V2.94798Z" fill="#050505"></path> <path d="M83.0078 1.83949H86.464V2.93271H84.2119V4.08484H86.2713V5.08862H84.2119V6.3018H86.464V7.38851H83.0078V1.83949Z" fill="#050505"></path> <path d="M92.6648 7.38851L92.1776 6.03346H90.1182L89.6461 7.38851H88.3901L90.4494 1.83949H91.8376L93.9273 7.38851H92.6648ZM90.4494 5.03844H91.8376L91.1446 3.10509L90.4494 5.03844Z" fill="#050505"></path> <path d="M96.2745 2.94798H94.6568V1.83949H99.0788V2.94798H97.4699V7.38851H96.2745V2.94798Z" fill="#050505"></path> <path d="M102.271 1.83949C103.784 1.83949 104.67 2.59884 104.67 3.78807C104.67 4.91187 103.843 5.81959 102.345 5.81959H101.849V7.38851H100.645V1.83949H102.271ZM103.451 3.8339C103.451 3.25347 103.016 2.94798 102.388 2.94798H101.849V4.74165H102.395C103.016 4.74165 103.451 4.41436 103.451 3.8339Z" fill="#050505"></path> </svg> 