<?xml version="1.0" encoding="UTF-8"?> <svg xmlns="http://www.w3.org/2000/svg" width="1200" height="600" viewBox="0 0 1200 600" fill="none"> <g clip-path="url(#clip0_330_363)"> <path d="M1181 19H600V581H1181V19Z" fill="white"></path> <path d="M600 -3.7998H0V600H600V-3.7998Z" fill="black"></path> <path d="M89.6499 269.51L139.3 209.21H93.3999V194.21H162.85V208.01L113.95 267.71H164.8V282.71H89.6499V269.51Z" fill="white"></path> <path d="M167.5 239.06V236.81C167.5 208.76 182.5 191.96 209.8 191.96C237.1 191.96 251.35 207.56 251.35 236.66V243.41H186.25C187.45 260.36 195.55 268.76 209.5 268.76C223.45 268.76 230.95 262.46 232.45 252.26H250.75C248.95 271.61 235.6 284.96 209.2 284.96C182.8 284.96 167.5 268.01 167.5 239.06V239.06ZM232.75 230.51C232 216.56 224.65 208.16 209.65 208.16C196.45 208.16 188.2 215.06 186.4 230.51H232.75Z" fill="white"></path> <path d="M282.7 265.61H282.4L283 275.36V282.71H264.4V167.96H283V200.66L282.4 211.31H282.7C288.4 198.56 299.2 191.96 313.15 191.96C338.8 191.96 349.3 211.16 349.3 237.26V239.51C349.3 266.06 338.8 284.96 313.15 284.96C299.2 284.96 288.25 278.06 282.7 265.61ZM307.45 268.76C325.75 268.76 330.55 254.66 330.55 239.06V238.31C330.55 224.36 325.75 208.16 307.45 208.16C289.15 208.16 283 223.16 283 236.81V240.26C283 254.36 289.75 268.76 307.45 268.76Z" fill="white"></path> <path d="M362.8 194.21H381.4V203.51L380.5 213.41H380.8C385.6 200.21 396.85 191.96 410.8 191.96C414.55 191.96 418 192.41 420.7 193.16V210.86C417.55 209.81 413.95 209.36 410.05 209.36C392.05 209.36 381.4 222.26 381.4 240.11V282.71H362.8V194.21V194.21Z" fill="white"></path> <path d="M420.85 256.01C420.85 241.46 429.7 227.81 456.25 227.81C467.8 227.81 478.45 230.51 484.3 232.61V227.06C484.3 215.81 478.9 206.21 462.25 206.21C447.4 206.21 442.3 214.61 441.7 223.16H423.7C424.6 209.81 432.1 191.96 462.55 191.96C495.25 191.96 502.75 209.81 502.75 229.91V282.71H484.3V272.66L485.05 264.56H484.9C479.65 276.86 468.7 284.96 453.25 284.96C428.35 284.96 420.85 270.11 420.85 256.01V256.01ZM457.9 269.66C475.15 269.66 482.8 256.46 484.15 245.96C478.45 243.71 468.25 241.16 459.55 241.16C442.9 241.16 439.15 248.81 439.15 255.41C439.15 262.61 443.65 269.66 457.9 269.66Z" fill="white"></path> <path d="M97.1499 321.96H115.75V357.06L114.7 366.96H115.15C120.85 353.16 132.4 345.96 147.4 345.96C168.7 345.96 180.85 356.91 180.85 383.76V436.71H162.1V386.31C162.1 370.26 154.9 362.46 141.55 362.46C123.25 362.46 115.75 377.61 115.75 391.71V436.71H97.1499V321.96V321.96Z" fill="white"></path> <path d="M193.45 393.06V390.81C193.45 362.76 208.45 345.96 235.75 345.96C263.05 345.96 277.3 361.56 277.3 390.66V397.41H212.2C213.4 414.36 221.5 422.76 235.45 422.76C249.4 422.76 256.9 416.46 258.4 406.26H276.7C274.9 425.61 261.55 438.96 235.15 438.96C208.75 438.96 193.45 422.01 193.45 393.06V393.06ZM258.7 384.51C257.95 370.56 250.6 362.16 235.6 362.16C222.4 362.16 214.15 369.06 212.35 384.51H258.7Z" fill="white"></path> <path d="M290.35 348.21H308.95V357.51L308.05 367.41H308.35C313.15 354.21 324.4 345.96 338.35 345.96C342.1 345.96 345.55 346.41 348.25 347.16V364.86C345.1 363.81 341.5 363.36 337.6 363.36C319.6 363.36 308.95 376.26 308.95 394.11V436.71H290.35V348.21V348.21Z" fill="white"></path> <path d="M348.55 393.36V391.41C348.55 362.46 364.15 345.96 391.9 345.96C419.65 345.96 435.25 362.46 435.25 391.41V393.36C435.25 422.31 419.65 438.96 391.9 438.96C364.15 438.96 348.55 422.31 348.55 393.36ZM391.9 422.76C407.65 422.76 416.65 413.16 416.65 392.91V391.86C416.65 371.61 407.65 362.16 391.9 362.16C376.15 362.16 367.15 371.61 367.15 391.86V392.91C367.15 413.16 376.15 422.76 391.9 422.76Z" fill="white"></path> <path d="M688.16 268.83H704.58C705.22 251.93 710.96 237.74 733.75 237.74C741.08 237.74 747.46 239.01 752.72 240.45L751.6 255.59C746.66 254.63 743.15 254.16 737.89 254.16C727.05 254.16 724.66 259.74 724.34 268.83H750.96V286.05H724.34V362.89H704.41V286.05H688.15V268.83H688.16Z" fill="black"></path> <path d="M766.27 284.78H750.97V268.84H786.04V362.89H766.27V284.78V284.78ZM774.72 234.88C783.01 234.88 786.99 238.39 786.99 245.56C786.99 252.73 783 255.92 774.72 255.92C766.44 255.92 762.29 252.57 762.29 245.56C762.29 238.55 766.59 234.88 774.72 234.88V234.88Z" fill="black"></path> <path d="M806.12 240.939H825.89V362.889H806.12V240.939Z" fill="black"></path> <path d="M845.82 268.829H865.59V278.079L864.63 288.919H864.95C870.37 275.369 882.64 266.439 898.27 266.439C917.56 266.439 926.01 277.599 929.2 288.759H929.52C935.1 275.369 948.01 266.439 963.64 266.439C994.09 266.439 996.16 293.379 996.16 307.249V362.889H976.23V310.599C976.23 298.639 973.52 283.979 956.14 283.979C939.72 283.979 930.79 299.439 930.79 313.949V362.889H911.02V309.489C911.02 298.809 907.83 283.979 890.62 283.979C874.52 283.979 865.59 299.919 865.59 314.109V362.889H845.82V268.839V268.829Z" fill="black"></path> <path d="M1010.02 332.759H1029.31C1030.11 344.079 1038.72 349.499 1053.06 349.499C1067.4 349.499 1072.83 344.879 1072.83 337.219C1072.83 327.969 1065.66 325.259 1049.08 322.389C1024.53 317.929 1012.26 310.749 1012.26 293.699V293.539C1012.26 278.559 1022.62 266.439 1050.04 266.439C1079.05 266.439 1091.01 281.109 1091.17 295.929H1071.72C1071.08 288.919 1064.71 282.059 1049.72 282.059C1037.29 282.059 1032.34 286.679 1032.34 293.219V293.379C1032.34 302.149 1040.15 304.539 1054.66 306.929C1081.12 311.079 1092.92 319.049 1092.92 336.419C1092.92 353.789 1078.89 365.109 1052.27 365.109C1022.78 365.109 1010.34 351.239 1010.02 332.749V332.759Z" fill="black"></path> <path d="M786.04 268.829H688.16V286.049H786.04V268.829Z" fill="black"></path> <path d="M1199.88 0H568.29V19H1199.88V0Z" fill="black"></path> <path d="M1181.14 0V600H1200.14V0H1181.14Z" fill="black"></path> <path d="M1200.14 581.38H0V600H1200.14V581.38Z" fill="black"></path> </g> <defs> <clipPath id="clip0_330_363"> <rect width="1200" height="600" fill="white"></rect> </clipPath> </defs> </svg> 