<?xml version="1.0" encoding="UTF-8"?> <svg xmlns="http://www.w3.org/2000/svg" width="155" height="29" viewBox="0 0 155 29" fill="none"> <path d="M24.794 14.0331L24.7932 14.0324C24.6939 13.818 24.5254 13.6438 24.3153 13.5381L10.6784 5.63262C9.98526 5.23008 9.41548 5.55493 9.41548 6.36003L9.43091 9.57755V22.1546C9.43091 22.9597 10.0014 23.2846 10.6945 22.882L24.316 14.9921C24.5262 14.8862 24.6946 14.7117 24.794 14.4971C24.8245 14.4236 24.8402 14.3447 24.8402 14.2651C24.8402 14.1854 24.8245 14.1065 24.794 14.0331Z" fill="#050505"></path> <path d="M151.809 1.06903C152.261 1.06977 152.695 1.25078 153.015 1.57256C153.335 1.89434 153.516 2.33075 153.519 2.78656V25.7754C153.516 26.2311 153.335 26.6673 153.015 26.9889C152.694 27.3105 152.261 27.4915 151.809 27.4922H3.43702C2.98484 27.4913 2.55135 27.3103 2.23102 26.9887C1.91069 26.6671 1.72949 26.231 1.7269 25.7754V2.77102C1.7269 1.82751 2.49786 1.0535 3.43702 1.0535H151.809V1.06903ZM151.809 0.141062H3.43702C3.09361 0.140226 2.75339 0.207615 2.43584 0.339374C2.11829 0.471133 1.82963 0.664677 1.58638 0.908937C1.34312 1.1532 1.15004 1.44338 1.01817 1.7629C0.886302 2.08241 0.818239 2.42498 0.817871 2.77102V25.7598C0.817871 27.2147 1.98832 28.3898 3.43702 28.3898H151.809C152.152 28.3907 152.492 28.3234 152.81 28.1917C153.128 28.06 153.416 27.8664 153.66 27.6222C153.903 27.3779 154.096 27.0877 154.228 26.7681C154.36 26.4486 154.428 26.1059 154.428 25.7598V2.77102C154.428 2.42492 154.36 2.08229 154.228 1.76273C154.096 1.44317 153.903 1.15296 153.66 0.908687C153.416 0.664417 153.128 0.470888 152.81 0.339171C152.492 0.207453 152.152 0.140133 151.809 0.141062Z" fill="#050505"></path> <path d="M42.1594 6.90169C41.0044 5.94265 39.4169 5.46312 37.3984 5.46312H30.6953C30.6157 5.46012 30.5364 5.47362 30.4623 5.50277C30.3881 5.53193 30.3207 5.57612 30.2642 5.63262C30.1563 5.75691 30.1101 5.89604 30.1101 6.08177V22.4491C30.1101 22.6193 30.1717 22.7584 30.2797 22.8827C30.403 23.0063 30.5411 23.0522 30.7107 23.0522H33.1147C33.2997 23.0522 33.4539 23.0063 33.5618 22.8827C33.6845 22.774 33.7314 22.6193 33.7314 22.4491V16.5705H37.4138C39.4323 16.5705 41.0191 16.1065 42.1748 15.1779C43.3313 14.2499 43.9011 12.8728 43.9011 11.0627C43.9011 9.25269 43.3152 7.86074 42.1594 6.90169ZM39.494 13.074C38.9852 13.538 38.2465 13.7704 37.2751 13.7704H33.6691V8.27811H37.2751C38.2773 8.27811 39.016 8.52529 39.5094 9.00552C40.0021 9.48504 40.2488 10.1658 40.2488 11.0479C40.2643 11.9293 40.0021 12.6101 39.494 13.0747V13.074ZM58.6011 15.8431C59.6489 15.4724 60.4655 14.8685 61.0507 14.0493C61.6366 13.2287 61.9289 12.192 61.9289 10.9702C61.9289 9.20679 61.3436 7.8452 60.1879 6.90169C59.0322 5.94265 57.4146 5.46312 55.3652 5.46312H48.878C48.7983 5.46002 48.7189 5.47347 48.6446 5.50263C48.5703 5.53179 48.5028 5.57604 48.4462 5.63262C48.3344 5.75472 48.2736 5.91562 48.2766 6.08177V22.4491C48.2766 22.6193 48.3383 22.7584 48.4462 22.8827C48.5696 23.0063 48.7084 23.0522 48.878 23.0522H51.174C51.2559 23.0552 51.3375 23.0418 51.4141 23.0127C51.4908 22.9836 51.5609 22.9394 51.6205 22.8827C51.6757 22.8253 51.7191 22.7574 51.7482 22.683C51.7774 22.6086 51.7916 22.5291 51.7901 22.4491V16.4159H55.2264L58.4315 22.3721C58.5549 22.5727 58.6782 22.7429 58.8317 22.8665C58.9859 22.9908 59.1864 23.0522 59.4639 23.0522H61.7754C61.8421 23.0547 61.9085 23.0421 61.9698 23.0153C62.031 22.9886 62.0855 22.9483 62.1293 22.8975C62.2373 22.7895 62.2989 22.6659 62.2989 22.5268C62.2989 22.4491 62.2681 22.3566 62.2218 22.2478L58.6011 15.8431ZM57.5379 12.9038C57.0445 13.353 56.2897 13.5691 55.2881 13.5691H51.8055V8.27811H55.2881C56.2897 8.27811 57.0445 8.51046 57.5379 8.97444C58.0306 9.43843 58.2928 10.0882 58.2928 10.9547C58.2928 11.8057 58.046 12.4554 57.5379 12.9038ZM78.5858 20.144H70.1725V15.5959H77.8309C78.016 15.5959 78.1701 15.5493 78.2781 15.4257C78.4014 15.317 78.4477 15.1623 78.4477 14.9921V13.4144C78.4506 13.3321 78.437 13.2499 78.4079 13.1729C78.3788 13.0959 78.3346 13.0255 78.2781 12.966C78.2185 12.9091 78.1483 12.8648 78.0715 12.8356C77.9947 12.8064 77.9129 12.7928 77.8309 12.7958H70.1725V8.38687H78.386C78.4679 8.38973 78.5496 8.37616 78.6262 8.34694C78.7028 8.31772 78.773 8.27344 78.8325 8.21667C78.9558 8.10791 79.0021 7.96949 79.0021 7.78305V6.09731C79.0051 6.01482 78.9916 5.93256 78.9624 5.85542C78.9333 5.77827 78.8891 5.70779 78.8325 5.64815C78.7091 5.52457 78.5703 5.47866 78.386 5.47866H67.3375C67.258 5.47566 67.1786 5.48915 67.1045 5.51831C67.0304 5.54747 66.963 5.59166 66.9065 5.64815C66.7945 5.77022 66.7338 5.93115 66.7368 6.09731V22.4646C66.7368 22.6348 66.7985 22.774 66.9065 22.8975C67.0291 23.0218 67.1679 23.0677 67.3375 23.0677H78.5858C78.7708 23.0677 78.925 23.0218 79.0329 22.8982C79.1563 22.7895 79.2025 22.6348 79.2025 22.4646V20.7626C79.2054 20.6826 79.1918 20.6028 79.1627 20.5283C79.1335 20.4538 79.0893 20.3862 79.0329 20.3297C78.925 20.2061 78.7708 20.144 78.5858 20.144ZM99.6497 5.46312H97.6466C97.3228 5.46312 97.0768 5.61779 96.8918 5.94265L92.053 14.9462L87.2149 5.94194C87.0299 5.61708 86.7838 5.46312 86.46 5.46312H84.4261C84.3465 5.46007 84.267 5.47353 84.1928 5.50269C84.1185 5.53185 84.051 5.57607 83.9944 5.63262C83.8825 5.75468 83.8217 5.91561 83.8248 6.08177V22.4491C83.8248 22.6193 83.8864 22.7584 83.9944 22.8827C84.1177 23.0063 84.2565 23.0522 84.4261 23.0522H86.5834C86.6629 23.0552 86.7422 23.0418 86.8164 23.0126C86.8906 22.9835 86.958 22.9392 87.0144 22.8827C87.0697 22.8253 87.1131 22.7574 87.1422 22.683C87.1713 22.6086 87.1855 22.5291 87.184 22.4491V11.651L90.6667 18.2873C90.8825 18.6588 91.1594 18.8446 91.514 18.8446H92.5618C92.9319 18.8446 93.2087 18.6588 93.3938 18.2873L96.8764 11.651V22.4646C96.8764 22.6348 96.9381 22.774 97.046 22.8975C97.1693 23.0218 97.3074 23.0677 97.477 23.0677H99.6343C99.8193 23.0677 99.9735 23.0218 100.081 22.8982C100.205 22.7895 100.251 22.6348 100.251 22.4646V6.09731C100.254 6.01482 100.241 5.93256 100.211 5.85542C100.182 5.77827 100.138 5.70779 100.081 5.64815C99.9889 5.52457 99.8347 5.46312 99.6497 5.46312ZM108.695 5.46312H106.291C106.131 5.46274 105.977 5.52328 105.859 5.63262C105.736 5.74137 105.69 5.8805 105.69 6.06624V22.4646C105.69 22.6348 105.751 22.774 105.859 22.8975C105.983 23.0218 106.122 23.0677 106.291 23.0677H108.695C108.775 23.0707 108.854 23.0572 108.928 23.028C109.002 22.9989 109.07 22.9547 109.126 22.8982C109.181 22.8408 109.225 22.7729 109.254 22.6985C109.283 22.6241 109.297 22.5446 109.296 22.4646V6.06624C109.296 5.8805 109.25 5.74137 109.126 5.63262C109.07 5.57612 109.002 5.53193 108.928 5.50277C108.854 5.47362 108.775 5.46012 108.695 5.46312ZM126.569 20.144H118.156V15.5959H125.814C125.999 15.5959 126.153 15.5493 126.261 15.4257C126.384 15.317 126.431 15.1623 126.431 14.9921V13.4144C126.434 13.3321 126.42 13.2499 126.391 13.1729C126.362 13.0959 126.318 13.0255 126.261 12.966C126.201 12.9091 126.131 12.8648 126.054 12.8356C125.978 12.8064 125.896 12.7928 125.814 12.7958H118.156V8.38687H126.369C126.451 8.38973 126.533 8.37616 126.609 8.34694C126.686 8.31772 126.756 8.27344 126.815 8.21667C126.939 8.10791 126.985 7.96949 126.985 7.78305V6.09731C126.988 6.01482 126.975 5.93256 126.945 5.85542C126.916 5.77827 126.872 5.70779 126.815 5.64815C126.692 5.52457 126.553 5.47866 126.369 5.47866H115.32C115.241 5.47553 115.162 5.48897 115.087 5.51813C115.013 5.54729 114.946 5.59156 114.889 5.64815C114.778 5.77022 114.717 5.93115 114.72 6.09731V22.4646C114.72 22.6348 114.782 22.774 114.889 22.8975C114.945 22.9548 115.013 22.9996 115.087 23.0289C115.161 23.0583 115.241 23.0715 115.32 23.0677H126.569C126.754 23.0677 126.908 23.0218 127.016 22.8982C127.139 22.7895 127.186 22.6348 127.186 22.4646V20.7626C127.188 20.6826 127.175 20.6028 127.146 20.5283C127.116 20.4538 127.072 20.3862 127.016 20.3297C126.958 20.2701 126.888 20.2229 126.811 20.191C126.734 20.1591 126.652 20.1431 126.569 20.144ZM145.768 22.2634L142.132 15.8438C143.179 15.4724 143.997 14.8692 144.582 14.0486C145.168 13.2294 145.46 12.192 145.46 10.9702C145.46 9.20679 144.875 7.8452 143.719 6.90169C142.563 5.94265 140.946 5.46312 138.896 5.46312H132.409C132.329 5.46007 132.25 5.47353 132.176 5.50269C132.102 5.53185 132.034 5.57607 131.977 5.63262C131.865 5.75468 131.805 5.91561 131.808 6.08177V22.4491C131.808 22.6193 131.869 22.7584 131.977 22.8827C132.101 23.0063 132.239 23.0522 132.409 23.0522H134.705C134.787 23.0552 134.869 23.0417 134.945 23.0126C135.022 22.9835 135.092 22.9394 135.152 22.8827C135.207 22.8253 135.25 22.7574 135.279 22.683C135.309 22.6086 135.323 22.5291 135.321 22.4491V16.4159H138.758L141.963 22.3721C142.085 22.5727 142.209 22.7429 142.363 22.8665C142.517 22.9908 142.718 23.0522 142.995 23.0522H145.306C145.375 23.0534 145.443 23.0402 145.507 23.0136C145.57 22.987 145.628 22.9475 145.676 22.8975C145.784 22.7895 145.846 22.6659 145.846 22.5268C145.845 22.4334 145.818 22.3421 145.768 22.2634ZM141.084 12.9038C140.591 13.353 139.836 13.5691 138.835 13.5691H135.352V8.27811H138.835C139.836 8.27811 140.591 8.51046 141.084 8.97444C141.577 9.43843 141.839 10.0882 141.839 10.9547C141.839 11.8057 141.593 12.4554 141.084 12.9038Z" fill="#050505"></path> </svg> 