<?xml version="1.0" encoding="UTF-8" standalone="no"?> <!-- Created with Inkscape (http://www.inkscape.org/) --> <svg xmlns:dc="http://purl.org/dc/elements/1.1/" xmlns:cc="http://creativecommons.org/ns#" xmlns:rdf="http://www.w3.org/1999/02/22-rdf-syntax-ns#" xmlns:svg="http://www.w3.org/2000/svg" xmlns="http://www.w3.org/2000/svg" xmlns:sodipodi="http://sodipodi.sourceforge.net/DTD/sodipodi-0.dtd" xmlns:inkscape="http://www.inkscape.org/namespaces/inkscape" width="1073.4915" height="350" viewBox="0 0 1073.4915 350" id="svg2" inkscape:version="0.91 r13725" sodipodi:docname="TNT Rus 2018 Monochrome.svg"> <defs id="defs4"></defs> <metadata id="metadata7"></metadata> <g inkscape:label="Layer 1" inkscape:groupmode="layer" id="layer1" transform="translate(-70.592245,-70.770798)"> <path inkscape:connector-curvature="0" style="color:#000000;clip-rule:nonzero;display:inline;overflow:visible;visibility:visible;opacity:1;isolation:auto;mix-blend-mode:normal;color-interpolation:sRGB;color-interpolation-filters:linearRGB;solid-color:#000000;solid-opacity:1;fill:#000000;fill-opacity:1;fill-rule:nonzero;stroke:none;stroke-width:5.31496048;stroke-linecap:round;stroke-linejoin:miter;stroke-miterlimit:4;stroke-dasharray:none;stroke-dashoffset:0;stroke-opacity:1;color-rendering:auto;image-rendering:auto;shape-rendering:auto;text-rendering:auto;enable-background:accumulate" d="m 827.87807,70.77235 c -3.50871,0 -6.88809,0.529781 -10.06521,1.513352 -1.06099,0.328458 -2.09954,0.705673 -3.11238,1.132634 -4.04459,1.705033 -7.68267,4.175949 -10.73623,7.228869 -3.05522,3.054581 -5.5229,6.694174 -7.22885,10.740987 -1.70549,4.045715 -2.65074,8.497142 -2.65074,13.177578 l 0,282.41133 c 0,4.68045 0.94525,9.13188 2.65074,13.1776 0.85273,2.02286 1.8954,3.94206 3.1076,5.73931 0.001,0.002 0.002,0.002 0.005,0.005 1.2113,1.79516 2.58627,3.46668 4.11174,4.99216 0.0714,0.0714 0.15156,0.13377 0.22368,0.20467 0.69828,0.68588 1.41897,1.3517 2.17485,1.97498 9.1e-4,7.6e-4 0.005,-7.5e-4 0.005,0 1.66689,1.37419 3.46787,2.59365 5.38238,3.63108 0.001,6.6e-4 0.002,-6.3e-4 0.005,0 0.95663,0.51824 1.94045,0.99238 2.95054,1.41817 0.64321,0.27129 1.31193,0.49141 1.97498,0.72338 0.37994,0.13279 0.74655,0.29443 1.13262,0.41402 0.001,4.4e-4 0.002,-4.4e-4 0.005,0 2.11759,0.65557 4.32463,1.1075 6.60067,1.33727 0.002,1.5e-4 0.002,-1.7e-4 0.005,0 1.13728,0.11452 2.29124,0.17617 3.45976,0.17617 0.002,2e-5 0.002,0 0.005,0 l 282.40662,0 c 3.5103,0 6.8915,-0.52891 10.07,-1.51334 2.1189,-0.6563 4.1472,-1.51751 6.0629,-2.55557 1.9156,-1.03804 3.7194,-2.25589 5.3871,-3.63108 0.8348,-0.68834 1.6343,-1.41517 2.3985,-2.17961 0.363,-0.36307 0.6913,-0.75809 1.0375,-1.1374 1.1085,-1.21437 2.156,-2.48685 3.079,-3.85476 0,-0.002 0,-0.002 0,-0.005 1.2122,-1.79725 2.2549,-3.71646 3.1076,-5.73932 0.8522,-2.02146 1.512,-4.14624 1.9607,-6.34846 3e-4,-0.002 -3e-4,-0.002 0,-0.005 0.029,-0.14522 0.039,-0.2968 0.067,-0.44261 0.3929,-2.0684 0.6187,-4.19561 0.6187,-6.38177 l 0,-282.41133 c 0,-2.34022 -0.2366,-4.625277 -0.6853,-6.829122 -0.4487,-2.203845 -1.1079,-4.325604 -1.9607,-6.348462 -1.7055,-4.045713 -4.1748,-7.686917 -7.2288,-10.740986 -3.0541,-3.054069 -6.6953,-5.523373 -10.741,-7.22887 -1.0115,-0.426374 -2.0482,-0.804488 -3.1076,-1.132634 -3.1784,-0.984439 -6.5597,-1.513351 -10.07,-1.513351 l -282.41135,0 z m -15.37622,120.24005 94.13235,0 c 4.32256,0 7.69049,3.3679 7.69049,7.69048 l 0,203.53625 c 0,4.32258 -3.36793,7.69049 -7.69049,7.69049 l -81.14513,0 c -11.79563,-1.15804 -20.68246,-10.8 -20.68246,-22.95727 l 0,-188.26947 c 0,-4.32258 3.37268,-7.69048 7.69524,-7.69048 z m 219.03145,0 94.1371,0 c 4.3225,0 7.6905,3.3679 7.6905,7.69048 l 0,188.26947 c 0,12.15727 -8.8779,21.79923 -20.673,22.95727 l -81.1546,0 c -4.3226,0 -7.6905,-3.36791 -7.6905,-7.69049 l 0,-203.53625 c 0,-4.32258 3.3679,-7.69048 7.6905,-7.69048 z" id="rect4147-1"></path> <path inkscape:connector-curvature="0" style="color:#000000;clip-rule:nonzero;display:inline;overflow:visible;visibility:visible;opacity:1;isolation:auto;mix-blend-mode:normal;color-interpolation:sRGB;color-interpolation-filters:linearRGB;solid-color:#000000;solid-opacity:1;fill:#000000;fill-opacity:1;fill-rule:nonzero;stroke:none;stroke-width:5.31496048;stroke-linecap:round;stroke-linejoin:miter;stroke-miterlimit:4;stroke-dasharray:none;stroke-dashoffset:0;stroke-opacity:1;color-rendering:auto;image-rendering:auto;shape-rendering:auto;text-rendering:auto;enable-background:accumulate" d="m 466.13476,70.77235 c -18.72174,0 -33.79342,15.071682 -33.79342,33.79342 l 0,282.41133 c 0,18.72174 15.07168,33.79342 33.79342,33.79342 l 282.41133,0 c 18.72174,0 33.79342,-15.07168 33.79342,-33.79342 l 0,-282.41133 c 0,-18.721738 -15.07168,-33.79342 -33.79342,-33.79342 l -282.41133,0 z m 94.1371,10.721952 94.13713,0 c 4.32258,0 7.69049,3.367902 7.69049,7.690491 l 0,94.137117 c 0,4.32258 -3.36791,7.69049 -7.69049,7.69049 l -94.13713,0 c -4.32256,0 -7.69049,-3.36791 -7.69049,-7.69049 l 0,-94.137117 c 0,-4.322589 3.36793,-7.690491 7.69049,-7.690491 z m 0,219.036188 94.13713,0 c 4.32258,0 7.69049,3.3679 7.69049,7.69049 l 0,94.1371 c 0,4.32259 -3.36791,7.69049 -7.69049,7.69049 l -94.13713,0 c -4.32256,0 -7.69049,-3.3679 -7.69049,-7.69049 l 0,-94.1371 c 0,-4.32259 3.36793,-7.69049 7.69049,-7.69049 z" id="rect4147-6"></path> <path inkscape:connector-curvature="0" style="color:#000000;clip-rule:nonzero;display:inline;overflow:visible;visibility:visible;opacity:1;isolation:auto;mix-blend-mode:normal;color-interpolation:sRGB;color-interpolation-filters:linearRGB;solid-color:#000000;solid-opacity:1;fill:#000000;fill-opacity:1;fill-rule:nonzero;stroke:none;stroke-width:5.31496048;stroke-linecap:round;stroke-linejoin:miter;stroke-miterlimit:4;stroke-dasharray:none;stroke-dashoffset:0;stroke-opacity:1;color-rendering:auto;image-rendering:auto;shape-rendering:auto;text-rendering:auto;enable-background:accumulate" d="m 104.38566,70.770798 c -3.50871,0 -6.888092,0.529788 -10.065212,1.513342 -1.060989,0.328477 -2.099537,0.705686 -3.112379,1.13265 -4.044594,1.705028 -7.682668,4.175951 -10.736228,7.228853 -3.055217,3.054583 -5.522899,6.694192 -7.228853,10.741004 -1.705492,4.045715 -2.650743,8.497123 -2.650743,13.177573 l 0,282.41132 c 0,4.68045 0.945251,9.13188 2.650743,13.1776 0.852733,2.02286 1.895399,3.94206 3.107603,5.73932 0.0012,0.002 0.0024,0.002 0.0049,0.005 1.211303,1.79516 2.586271,3.46668 4.111747,4.99216 0.07139,0.0714 0.151556,0.13377 0.223679,0.20467 0.698279,0.68588 1.418973,1.3517 2.174853,1.97498 9.01e-4,7.6e-4 0.0049,-7.5e-4 0.0049,0 1.666896,1.37419 3.467878,2.59365 5.38238,3.63108 0.0012,6.6e-4 0.0024,-6.3e-4 0.0049,0 0.95663,0.51824 1.940453,0.99238 2.950541,1.41817 0.643212,0.27129 1.311934,0.49141 1.974979,0.72338 0.379938,0.13279 0.746547,0.29443 1.132625,0.41402 0.0014,4.4e-4 0.0024,-4.4e-4 0.0049,0 2.117592,0.65557 4.324632,1.1075 6.600673,1.33728 0.002,1.4e-4 0.002,-1.8e-4 0.005,0 1.13727,0.11452 2.29124,0.17616 3.45976,0.17616 0.002,3e-5 0.002,0 0.005,0 l 282.4066,0 c 3.51035,0 6.89158,-0.52891 10.06999,-1.51334 2.11893,-0.6563 4.14727,-1.51751 6.06292,-2.55557 1.91563,-1.03804 3.71943,-2.25589 5.38716,-3.63108 0.83475,-0.68834 1.63424,-1.41517 2.3985,-2.17961 0.36301,-0.36307 0.69129,-0.75809 1.03746,-1.1374 1.1085,-1.21437 2.15604,-2.48685 3.07904,-3.85476 0.001,-0.002 0.002,-0.002 0.005,-0.005 1.21218,-1.79725 2.25484,-3.71646 3.1076,-5.73932 0.85215,-2.02146 1.51203,-4.14624 1.96068,-6.34846 3.1e-4,-0.002 -3e-4,-0.002 0,-0.005 0.0295,-0.14522 0.039,-0.2968 0.0668,-0.44261 0.39283,-2.0684 0.61867,-4.19561 0.61867,-6.38177 l 0,-282.41133 c 0,-2.34022 -0.23659,-4.625281 -0.68531,-6.829105 -0.44868,-2.203847 -1.10794,-4.325606 -1.96068,-6.348464 -1.70549,-4.045715 -4.1748,-7.686932 -7.22888,-10.741004 -3.05407,-3.054047 -6.69526,-5.523361 -10.74098,-7.228853 -1.01142,-0.426379 -2.04815,-0.804489 -3.1076,-1.132649 -3.17841,-0.984432 -6.55964,-1.513342 -10.06999,-1.513342 l -282.41135,0 z m -15.376224,120.240052 94.132374,0 c 4.32256,0 7.69049,3.36791 7.69049,7.69049 l 0,203.53623 c 0,4.32258 -3.36793,7.69049 -7.69049,7.69049 l -81.14515,0 c -11.795634,-1.15804 -20.682465,-10.8 -20.682465,-22.95727 l 0,-188.26945 c 0,-4.32258 3.37268,-7.69049 7.695241,-7.69049 z m 219.031454,0 94.1371,0 c 4.32256,0 7.69049,3.36791 7.69049,7.69049 l 0,188.26945 c 0,12.15727 -8.87784,21.79923 -20.67294,22.95727 l -81.15465,0 c -4.32256,0 -7.69049,-3.36791 -7.69049,-7.69049 l 0,-203.53623 c 0,-4.32258 3.36793,-7.69049 7.69049,-7.69049 z" id="rect4147-1-3"></path> </g> </svg> 